<svg width="600" height="600" viewBox="0 0 600 600" fill="none" xmlns="http://www.w3.org/2000/svg">
<path d="M472.187 326.684L222.803 287.604L255.863 436.21L472.187 326.684Z" fill="#D12053"/>
<path d="M472.187 326.684L284.267 65.5898L222.85 287.651L472.187 326.684Z" fill="#E2136E"/>
<path d="M217.018 284.642L20.1162 33L277.965 63.8027L217.018 284.642Z" fill="#D12053"/>
<path d="M127.338 179.489L18 76.4531H46.7805L127.338 179.489Z" fill="#9E1638"/>
<path d="M525.374 199.758L479.1 325.273L404.092 221.531L525.374 199.758Z" fill="#D12053"/>
<path d="M284.972 428.686L466.544 355.747L474.162 332.562L284.972 428.686Z" fill="#E2136E"/>
<path d="M139.753 566.333L217.536 293.482L256.991 471.009L139.753 566.333Z" fill="#9E1638"/>
<path d="M532.617 200.745L513.524 252.569L582.371 251.44L532.617 200.745Z" fill="#E2136E"/>
</svg>
