<svg width="89" height="23" viewBox="0 0 89 23" fill="none" xmlns="http://www.w3.org/2000/svg">
<g clip-path="url(#clip0_355_3994)">
<path d="M4.98315 12.81C1.30166 8.19036 5.3026 2.60231 7.76326 0.385738C-0.995982 5.24831 -1.46517 14.8972 3.73828 18.8933C9.29395 23.16 15.2224 20.8473 16.9767 20.0178C20.4428 18.379 21.4408 15.9684 19.8202 13.8655C18.443 12.0783 15.2208 13.2412 13.3807 13.9738C11.5406 14.7064 7.75918 15.6598 4.98315 12.81Z" fill="#7950F2"/>
<path d="M23.0169 9.83273C26.6983 14.4523 22.6974 20.0404 20.2367 22.257C28.996 17.3944 29.4652 7.74555 24.2617 3.74936C18.7061 -0.517319 12.7776 1.79544 11.0233 2.62485C7.55719 4.26366 6.55916 6.67429 8.17976 8.77724C9.55699 10.5644 12.7792 9.40152 14.6193 8.66889C16.4594 7.93627 20.2408 6.98294 23.0169 9.83273Z" fill="#7950F2"/>
</g>
<path d="M36.382 16.5966C35.598 16.5966 34.8467 16.4939 34.128 16.2886C33.4093 16.0739 32.8307 15.7986 32.392 15.4626L33.162 13.7546C33.582 14.0533 34.0767 14.3006 34.646 14.4966C35.2247 14.6833 35.808 14.7766 36.396 14.7766C36.844 14.7766 37.2033 14.7346 37.474 14.6506C37.754 14.5573 37.9593 14.4313 38.09 14.2726C38.2207 14.1139 38.286 13.9319 38.286 13.7266C38.286 13.4653 38.1833 13.2599 37.978 13.1106C37.7727 12.9519 37.502 12.8259 37.166 12.7326C36.83 12.6299 36.4567 12.5366 36.046 12.4526C35.6447 12.3593 35.2387 12.2473 34.828 12.1166C34.4267 11.9859 34.058 11.8179 33.722 11.6126C33.386 11.4073 33.1107 11.1366 32.896 10.8006C32.6907 10.4646 32.588 10.0353 32.588 9.51259C32.588 8.95259 32.7373 8.44392 33.036 7.98659C33.344 7.51992 33.8013 7.15125 34.408 6.88059C35.024 6.60059 35.794 6.46059 36.718 6.46059C37.334 6.46059 37.9407 6.53526 38.538 6.68459C39.1353 6.82459 39.6627 7.03925 40.12 7.32859L39.42 9.05059C38.9627 8.78926 38.5053 8.59792 38.048 8.47659C37.5907 8.34592 37.1427 8.28059 36.704 8.28059C36.2653 8.28059 35.906 8.33192 35.626 8.43459C35.346 8.53726 35.1453 8.67259 35.024 8.84059C34.9027 8.99925 34.842 9.18592 34.842 9.40059C34.842 9.65259 34.9447 9.85792 35.15 10.0166C35.3553 10.1659 35.626 10.2873 35.962 10.3806C36.298 10.4739 36.6667 10.5673 37.068 10.6606C37.4787 10.7539 37.8847 10.8613 38.286 10.9826C38.6967 11.1039 39.07 11.2673 39.406 11.4726C39.742 11.6779 40.0127 11.9486 40.218 12.2846C40.4327 12.6206 40.54 13.0453 40.54 13.5586C40.54 14.1093 40.386 14.6133 40.078 15.0706C39.77 15.5279 39.308 15.8966 38.692 16.1766C38.0853 16.4566 37.3153 16.5966 36.382 16.5966ZM45.6737 16.5406C44.8151 16.5406 44.0591 16.3726 43.4057 16.0366C42.7617 15.7006 42.2624 15.2433 41.9077 14.6646C41.5531 14.0766 41.3757 13.4093 41.3757 12.6626C41.3757 11.9066 41.5484 11.2393 41.8937 10.6606C42.2484 10.0726 42.7291 9.61526 43.3357 9.28859C43.9424 8.95259 44.6331 8.78459 45.4077 8.78459C46.1171 8.78459 46.7657 8.93392 47.3537 9.23259C47.9417 9.53126 48.4131 9.96526 48.7677 10.5346C49.1224 11.1039 49.2997 11.7899 49.2997 12.5926L43.2237 13.7686L43.1957 12.4946L48.0117 11.5706L47.2697 12.3266C47.2697 11.9533 47.1904 11.6266 47.0317 11.3466C46.8731 11.0666 46.6537 10.8473 46.3737 10.6886C46.1031 10.5206 45.7811 10.4366 45.4077 10.4366C45.0344 10.4366 44.7031 10.5206 44.4137 10.6886C44.1337 10.8473 43.9144 11.0853 43.7557 11.4026C43.5971 11.7106 43.5177 12.0886 43.5177 12.5366C43.5177 13.0313 43.6064 13.4466 43.7837 13.7826C43.9611 14.1186 44.2131 14.3706 44.5397 14.5386C44.8757 14.7066 45.2724 14.7906 45.7297 14.7906C46.1311 14.7906 46.4811 14.7299 46.7797 14.6086C47.0784 14.4873 47.3584 14.3053 47.6197 14.0626L48.7817 15.3226C48.4364 15.7146 48.0024 16.0179 47.4797 16.2326C46.9571 16.4379 46.3551 16.5406 45.6737 16.5406ZM53.4698 16.5406C52.6204 16.5406 51.9578 16.3166 51.4818 15.8686C51.0058 15.4206 50.7678 14.7766 50.7678 13.9366V6.04059H52.9518V13.8106C52.9518 14.1279 53.0311 14.3753 53.1898 14.5526C53.3578 14.7206 53.5911 14.8046 53.8898 14.8046C54.0111 14.8046 54.1278 14.7906 54.2398 14.7626C54.3518 14.7346 54.4404 14.7019 54.5058 14.6646L54.6038 16.3586C54.4171 16.4146 54.2258 16.4566 54.0298 16.4846C53.8431 16.5219 53.6564 16.5406 53.4698 16.5406ZM58.378 16.5406C57.5286 16.5406 56.866 16.3166 56.39 15.8686C55.914 15.4206 55.676 14.7766 55.676 13.9366V6.04059H57.86V13.8106C57.86 14.1279 57.9393 14.3753 58.098 14.5526C58.266 14.7206 58.4993 14.8046 58.798 14.8046C58.9193 14.8046 59.036 14.7906 59.148 14.7626C59.26 14.7346 59.3486 14.7019 59.414 14.6646L59.512 16.3586C59.3253 16.4146 59.134 16.4566 58.938 16.4846C58.7513 16.5219 58.5646 16.5406 58.378 16.5406ZM60.5842 16.4286V8.89659H62.7682V16.4286H60.5842ZM61.6762 7.84659C61.2748 7.84659 60.9482 7.72992 60.6962 7.49659C60.4442 7.26326 60.3182 6.97392 60.3182 6.62859C60.3182 6.28325 60.4442 5.99392 60.6962 5.76059C60.9482 5.52725 61.2748 5.41059 61.6762 5.41059C62.0775 5.41059 62.4042 5.52259 62.6562 5.74659C62.9082 5.96126 63.0342 6.24126 63.0342 6.58659C63.0342 6.95059 62.9082 7.25392 62.6562 7.49659C62.4135 7.72992 62.0868 7.84659 61.6762 7.84659ZM67.9731 16.5406C67.3478 16.5406 66.7878 16.4193 66.2931 16.1766C65.8078 15.9339 65.4298 15.5653 65.1591 15.0706C64.8884 14.5666 64.7531 13.9273 64.7531 13.1526V8.89659H66.9371V12.8306C66.9371 13.4559 67.0678 13.9179 67.3291 14.2166C67.5998 14.5059 67.9778 14.6506 68.4631 14.6506C68.7991 14.6506 69.0978 14.5806 69.3591 14.4406C69.6204 14.2913 69.8258 14.0673 69.9751 13.7686C70.1244 13.4606 70.1991 13.0779 70.1991 12.6206V8.89659H72.3831V16.4286H70.3111V14.3566L70.6891 14.9586C70.4371 15.4813 70.0638 15.8779 69.5691 16.1486C69.0838 16.4099 68.5518 16.5406 67.9731 16.5406ZM84.0524 8.78459C84.6498 8.78459 85.1771 8.90592 85.6344 9.14859C86.1011 9.38192 86.4651 9.74592 86.7264 10.2406C86.9971 10.7259 87.1324 11.3513 87.1324 12.1166V16.4286H84.9484V12.4526C84.9484 11.8459 84.8224 11.3979 84.5704 11.1086C84.3184 10.8193 83.9638 10.6746 83.5064 10.6746C83.1891 10.6746 82.9044 10.7493 82.6524 10.8986C82.4004 11.0386 82.2044 11.2533 82.0644 11.5426C81.9244 11.8319 81.8544 12.2006 81.8544 12.6486V16.4286H79.6704V12.4526C79.6704 11.8459 79.5444 11.3979 79.2924 11.1086C79.0498 10.8193 78.6998 10.6746 78.2424 10.6746C77.9251 10.6746 77.6404 10.7493 77.3884 10.8986C77.1364 11.0386 76.9404 11.2533 76.8004 11.5426C76.6604 11.8319 76.5904 12.2006 76.5904 12.6486V16.4286H74.4064V8.89659H76.4924V10.9546L76.1004 10.3526C76.3618 9.83926 76.7304 9.45192 77.2064 9.19059C77.6918 8.91992 78.2424 8.78459 78.8584 8.78459C79.5491 8.78459 80.1511 8.96192 80.6644 9.31659C81.1871 9.66192 81.5324 10.1939 81.7004 10.9126L80.9304 10.7026C81.1824 10.1146 81.5838 9.64792 82.1344 9.30259C82.6944 8.95726 83.3338 8.78459 84.0524 8.78459Z" fill="#FFFFFF"/>
<defs>
<clipPath id="clip0_355_3994">
<rect width="28" height="22.8571" fill="white"/>
</clipPath>
</defs>
</svg>

