<svg width="600" height="600" viewBox="0 0 600 600" fill="none" xmlns="http://www.w3.org/2000/svg">
<path fill-rule="evenodd" clip-rule="evenodd" d="M250.225 30.6142C223.733 43.4304 197.376 63.957 177.892 86.9462C118.074 157.529 107.456 258.32 151.261 339.729C156.7 349.837 161.813 357.862 161.398 355.639C159.067 343.178 159.057 314.226 161.377 295.867C169.888 228.501 209.568 168.087 269.023 131.969C277.335 126.92 292.192 119.301 299.344 116.421L303.747 114.648L301.372 110.287C300.066 107.889 289.48 88.3911 277.846 66.9595C266.213 45.5279 256.452 27.9957 256.154 28C255.856 28.0043 253.188 29.1806 250.225 30.6142ZM397.573 35.3188C396.536 35.4391 393.02 35.7945 389.761 36.1095C367.378 38.2717 343.171 45.324 321.879 55.8848C314.045 59.7701 299.616 68.2453 297.018 70.4862L295.323 71.9484L308.162 95.4095C318.954 115.13 320.857 118.93 320.093 119.242C319.594 119.446 316.276 120.751 312.72 122.143C295.721 128.793 277.555 139.417 261.972 151.82C254.455 157.803 238.152 174.284 231.706 182.417C213.831 204.969 200.274 231.962 193.734 258.019C192.161 264.286 190.153 274.531 190.16 276.25C190.163 276.947 191.813 274.511 194.166 270.338C210.819 240.798 235.223 213.695 262.886 194.021C282.426 180.123 305.415 168.631 327.266 161.835C352.803 153.894 370.38 151.058 397.034 150.576C413.242 150.283 421.733 150.694 434.626 152.396C438.264 152.876 441.314 153.175 441.405 153.059C441.597 152.815 438.437 37.5139 438.232 37.2642C437.332 36.1693 404.007 34.5745 397.573 35.3188ZM155.379 93.7068C97.2946 124.578 53.4658 176.257 32.9056 238.114C17.8336 283.461 15.9156 332.496 27.4017 378.831C36.7167 416.408 54.8924 451.811 80.358 481.978C86.2724 488.985 102.386 505.139 109.073 510.766C157.446 551.469 217.087 572.507 279.587 570.916C306.335 570.235 329.904 566.17 354.196 558.049C407.509 540.224 453.558 505.089 485.204 458.092C497.181 440.303 503.929 427.075 511.878 405.798C526.837 365.761 531.184 319.333 524.175 274.469C522.633 264.599 522.455 263.68 522.088 263.701C521.905 263.712 519.675 266.964 517.132 270.929L512.51 278.138L507.319 273.607C504.464 271.115 502.021 269.076 501.891 269.076C501.76 269.076 501.784 270.047 501.943 271.233C502.102 272.42 502.103 273.39 501.944 273.39C501.787 273.39 501.13 272.496 500.486 271.402C499.808 270.252 499.161 269.659 498.951 269.995C498.728 270.351 496.302 268.92 492.662 266.287C474.037 252.81 452.576 241.792 431.783 235.032C423.767 232.426 405.837 227.949 397.573 226.491C388.695 224.924 378.128 223.772 372.64 223.772H367.904L369.861 225.491C370.937 226.437 374.126 229.896 376.948 233.176C405.142 265.959 415.322 313.309 403.224 355.389C390.679 399.021 357.424 433.491 315.092 446.739C307.984 448.963 293.015 451.54 281.742 452.48C272.438 453.256 257.463 452.865 249.147 451.629C228.025 448.489 206.486 438.774 188.751 424.387C183.21 419.892 171.645 408.576 166.984 403.09C139.344 370.547 121.414 326.461 115.224 275.817C113.786 264.055 113.15 229.102 114.18 218.441C115.642 203.295 118.436 187.264 122.086 173.074C125.767 158.763 132.2 140.761 137.191 130.806C138.509 128.175 139.829 125.387 140.124 124.611L140.66 123.202L139.413 124.301C136.523 126.85 130.442 131.986 128.087 133.868C123.409 137.606 113.191 148.21 108.366 154.333C102.911 161.257 96.8555 170.197 90.7402 180.355C87.0675 186.456 84.9255 190.665 77.0129 207.322C75.4882 210.531 70.6907 223.014 67.9986 230.776C67.2281 232.998 66.5143 234.565 66.4125 234.259C66.2449 233.755 68.0777 228.372 72.1873 217.299C83.0275 188.092 96.2537 165.364 113.485 146.335C117.467 141.937 131.429 128.773 137.896 123.319C140.124 121.439 141.959 119.308 142.94 117.46C145.008 113.562 151.441 103.77 156.035 97.5242C159.886 92.29 160.708 91.0872 160.421 91.105C160.329 91.111 158.06 92.2819 155.379 93.7068ZM454.703 116.578C454.716 118.136 455.173 130.332 455.719 143.68C456.265 157.029 456.617 168.052 456.502 168.177C456.386 168.302 452.232 167.4 447.27 166.174C437.802 163.833 429.652 162.31 420.2 161.115C412.718 160.169 386.296 160.161 378.717 161.102C350.347 164.626 326.336 172.21 302.099 185.302C268.962 203.202 240.528 233.011 222.445 268.806C218.185 277.239 211.885 292.089 212.364 292.568C212.476 292.68 213.794 291.141 215.293 289.148C226.992 273.601 246.139 255.333 262.788 243.835C313.396 208.884 380.622 199.746 439.326 219.839C465.409 228.767 486.207 240.873 505.217 258.195C508.04 260.767 510.423 262.55 510.673 262.278C511.546 261.329 538.746 220.284 558.702 189.802L579 158.799L575.698 156.223C548.075 134.67 515.331 120.559 481.618 115.68C474.785 114.691 463.43 113.747 458.373 113.747H454.68L454.703 116.578ZM65.4346 237.794C65.2278 239.021 65.1712 240.138 65.3097 240.276C65.4476 240.414 65.7223 239.516 65.9195 238.28C66.1167 237.044 66.1733 235.927 66.0445 235.798C65.9163 235.669 65.6415 236.568 65.4346 237.794ZM64.7316 242.918C64.7424 243.808 64.863 244.107 64.9999 243.582C65.1367 243.057 65.1276 242.329 64.9799 241.964C64.8323 241.599 64.7208 242.028 64.7316 242.918ZM64.1928 246.154C64.2036 247.044 64.3243 247.343 64.4611 246.818C64.598 246.293 64.5888 245.565 64.4412 245.2C64.2936 244.835 64.1821 245.264 64.1928 246.154ZM63.6541 249.39C63.6649 250.28 63.7855 250.579 63.9224 250.054C64.0592 249.529 64.0501 248.801 63.9025 248.436C63.7548 248.071 63.6433 248.5 63.6541 249.39ZM63.1153 252.626C63.1261 253.516 63.2468 253.815 63.3836 253.29C63.5205 252.765 63.5113 252.037 63.3637 251.672C63.2161 251.307 63.1046 251.736 63.1153 252.626ZM62.5766 255.862C62.5874 256.752 62.708 257.051 62.8449 256.526C62.9817 256.001 62.9726 255.273 62.825 254.908C62.6773 254.543 62.5658 254.972 62.5766 255.862ZM62.0378 259.098C62.0486 259.988 62.1693 260.287 62.3061 259.762C62.443 259.237 62.4338 258.509 62.2862 258.144C62.1386 257.779 62.0271 258.208 62.0378 259.098ZM502.226 279.054C502.232 280.24 502.342 280.662 502.471 279.991C502.6 279.32 502.595 278.349 502.46 277.834C502.325 277.318 502.22 277.867 502.226 279.054Z" fill="url(#paint0_linear_371_3587)"/>
<defs>
<linearGradient id="paint0_linear_371_3587" x1="299.5" y1="28" x2="299.5" y2="571" gradientUnits="userSpaceOnUse">
<stop stop-color="#F7941D"/>
<stop offset="1" stop-color="#ED1C24"/>
</linearGradient>
</defs>
</svg>
